<svg data-v-423bf9ae="" xmlns="http://www.w3.org/2000/svg" viewBox="0 0 956 987" class="iconLeft"><!----><!----><!----><g data-v-423bf9ae="" id="ffbc5619-86f8-4f16-9755-b8326e1b04f5" fill="#000000" transform="matrix(4.761904716491699,0,0,4.761904716491699,717.2888793945312,444.4031677246094)"><path d="M0.98 3.98L0.98 13.78L2.27 13.78L2.27 12.68L2.46 12.68C2.84 13.31 3.47 13.97 4.82 13.97C6.62 13.97 8.04 12.46 8.04 10.30C8.04 8.15 6.62 6.64 4.82 6.64C3.47 6.64 2.84 7.29 2.46 7.92L2.30 7.92L2.30 3.98ZM4.48 7.81C5.80 7.81 6.72 8.71 6.72 10.30C6.72 11.90 5.80 12.80 4.48 12.80C3.14 12.80 2.30 11.84 2.30 10.30C2.30 8.76 3.14 7.81 4.48 7.81ZM9.10 10.25C9.10 12.35 10.56 13.97 12.68 13.97C14.32 13.97 15.20 13.06 15.72 12.22L14.62 11.59C14.25 12.32 13.66 12.82 12.66 12.82C11.42 12.82 10.56 12.04 10.47 10.78L15.99 10.78L15.99 10.12C15.99 8.11 14.59 6.64 12.57 6.64C10.58 6.64 9.10 8.20 9.10 10.25ZM10.47 9.72C10.57 8.47 11.37 7.78 12.57 7.78C13.78 7.78 14.59 8.51 14.62 9.72ZM16.72 6.83L16.72 7.98L18.62 7.98L18.62 12.60C18.62 13.30 19.10 13.78 19.77 13.78L21.56 13.78L21.56 12.63L20.30 12.63C20.05 12.63 19.94 12.52 19.94 12.24L19.94 7.98L21.95 7.98L21.95 6.83L19.94 6.83L19.94 4.54L18.62 4.54L18.62 6.83ZM23.32 6.83L23.32 13.78L24.64 13.78L24.64 9.41C24.64 8.37 25.33 7.84 26.21 7.84C27.01 7.84 27.55 8.29 27.55 9.09L27.55 13.78L28.87 13.78L28.87 9.41C28.87 8.37 29.51 7.84 30.37 7.84C31.18 7.84 31.78 8.29 31.78 9.09L31.78 13.78L33.10 13.78L33.10 9.00C33.10 7.59 31.99 6.72 30.77 6.72C29.65 6.72 29.06 7.29 28.78 7.87L28.59 7.87C28.25 7.24 27.68 6.72 26.68 6.72C25.77 6.72 25.16 7.14 24.81 7.73L24.61 7.73L24.61 6.83ZM34.75 8.64L35.88 9.16C36.20 8.36 36.86 7.81 37.98 7.81C39.10 7.81 39.76 8.37 39.76 9.31L39.76 9.51L37.23 9.74C35.46 9.91 34.61 10.63 34.61 11.87C34.61 13.10 35.60 13.97 37.14 13.97C38.56 13.97 39.27 13.31 39.56 12.70L39.76 12.70L39.76 13.78L41.05 13.78L41.05 9.37C41.05 7.71 39.86 6.64 38.01 6.64C36.33 6.64 35.24 7.57 34.75 8.64ZM35.94 11.82C35.94 11.12 36.57 10.84 37.37 10.77L39.76 10.54L39.76 10.72C39.76 11.91 38.98 12.88 37.37 12.88C36.46 12.88 35.94 12.46 35.94 11.82ZM42.92 16.58L44.24 16.58L44.24 12.68L44.41 12.68C44.79 13.31 45.42 13.97 46.76 13.97C48.57 13.97 49.98 12.46 49.98 10.30C49.98 8.15 48.57 6.64 46.76 6.64C45.42 6.64 44.79 7.29 44.41 7.92L44.21 7.92L44.21 6.83L42.92 6.83ZM46.42 12.80C45.08 12.80 44.24 11.84 44.24 10.30C44.24 8.76 45.08 7.81 46.42 7.81C47.74 7.81 48.66 8.71 48.66 10.30C48.66 11.90 47.74 12.80 46.42 12.80Z"></path></g><defs data-v-423bf9ae=""><linearGradient data-v-423bf9ae="" gradientTransform="rotate(25)" id="65e92b61-a5a3-467d-8495-19f491d21552" x1="0%" y1="0%" x2="100%" y2="0%"><stop data-v-423bf9ae="" offset="0%" style="stop-color: rgb(65, 15, 248); stop-opacity: 1;"></stop><stop data-v-423bf9ae="" offset="100%" style="stop-color: rgb(65, 15, 248); stop-opacity: 1;"></stop></linearGradient></defs><g data-v-423bf9ae="" id="fbe64e06-b1d1-48ec-b331-eedb8939d64d" transform="matrix(3.3111112117767334,0,0,3.3111112117767334,0.022211551666259766,0.6444294452667236)" stroke="none" fill="url(#65e92b61-a5a3-467d-8495-19f491d21552)"><g><path d="M10 258.69C10 275.43 20.57 286 37.31 286h137.38c16.74 0 27.31-10.57 27.31-27.31V37.31C202 20.57 191.43 10 174.69 10H37.31C20.57 10 10 20.57 10 37.31v221.38zM37.375 0h137.25C196.924 0 212 15.075 212 37.375v223.25C212 282.924 196.925 298 174.625 298H37.375C15.076 298 0 282.925 0 260.625V37.375C0 15.076 15.075 0 37.375 0z"></path><path d="M93.008 135.184c0 1.86.174 3.033 2.033 3.033h.212c1.86 0 2.034-1.174 2.034-3.033v-18.59c0-1.86-.174-3.033-2.034-3.033h-.212c-1.859 0-2.033 1.174-2.033 3.033v18.59zm.393-25.734H96.6c2.476 0 4.151 1.674 4.151 4.151V138.4c0 2.476-1.674 4.151-4.151 4.151H93.4c-2.476 0-4.151-1.674-4.151-4.151V113.6c0-2.476 1.674-4.151 4.151-4.151z"></path><path d="M82.095 212.268c0 12.965 8.221 16.594 21.15 21.685 23.11 9.28 40.566 16.243 52.37 20.889.245.174.7.262 1.365.262 12.965 0 21.15-8.186 21.15-21.15V62.498c0-12.965-8.186-21.15-21.15-21.15h-53.734c-12.965 0-21.15 8.185-21.15 21.15v149.769zm21.976-178.664h52.858c17.27 0 28.946 11.675 28.946 28.945v172.903c0 17.27-11.675 28.945-28.946 28.945-.738 0-1.3-.106-1.687-.318-11.458-4.7-28.515-11.823-51.171-21.367-17.58-7.26-28.946-11.675-28.946-28.946V62.55c0-17.27 11.675-28.945 28.946-28.945z"></path></g></g><!----></svg>